<?xml version="1.0" encoding="UTF-8"?>
<svg id="Layer_1" data-name="Layer 1" xmlns="http://www.w3.org/2000/svg" version="1.1" viewBox="0 0 511.9 512">
  <defs>
    <style>
      .cls-1 {
        fill: #aaa;
      }

      .cls-1, .cls-2, .cls-3, .cls-4, .cls-5, .cls-6, .cls-7, .cls-8, .cls-9, .cls-10, .cls-11, .cls-12 {
        stroke-width: 0px;
      }

      .cls-2 {
        fill: #11616e;
      }

      .cls-3 {
        fill: #ff6126;
      }

      .cls-4 {
        fill: #ffea7c;
      }

      .cls-5 {
        fill: #ffa07d;
      }

      .cls-6 {
        fill: #dbfff9;
      }

      .cls-7 {
        fill: #d3d3d3;
      }

      .cls-8 {
        fill: #a3fdf6;
      }

      .cls-9 {
        fill: #ff8151;
      }

      .cls-10 {
        fill: #ffd15e;
      }

      .cls-11 {
        fill: #010f0f;
      }

      .cls-12 {
        fill: #ffc0a7;
      }
    </style>
  </defs>
  <path class="cls-7" d="M347.8,256c15.7,15.8,31.3,31.7,47.2,47.3,1.4,1.3,4.2,1.8,6.3,1.6,12.6-1,24.8.4,36.9,4,14.2,4.3,26.8,11.2,38.2,20.8,13.8,11.6,23.3,25.9,29.5,42.5,2.5,6.8,3.6,14.2,5.7,21.6.3,9.6.3,18.9,0,29-2,12.1-5,23-11.5,34.3-23.6-23.6-46.7-46.7-70.6-70.7-7.1,7.5-14.2,15.1-21.6,22.4-.7-.9-1.2-1.6-1.8-2.2-34.1-34.1-68.2-68.2-102.3-102.3-.9-.9-2-1.7-2.9-2.8,14.4-14.5,28.6-28.8,42.8-43,1.1-1.1,2.7-1.7,4-2.5Z"/>
  <path class="cls-1" d="M164.1,256c-15.7-15.8-31.4-31.7-47.2-47.3-1.3-1.2-3.9-1.4-5.9-1.6-10.2-.8-20.6-.4-30.6-2.3-16.7-3.1-31.3-11-44.4-22-11.8-9.9-21.1-21.7-26.9-35.9-3.7-9.1-5.7-19-8.8-28.7-.4-9.5-.4-18.9,0-28.9,1.8-12.1,5.1-22.9,11.3-34.3,23.6,23.6,46.7,46.7,71,71.1,7.1-7.7,14.2-15.4,21.4-22.8.6.8,1,1.3,1.5,1.8,34.2,34.2,68.4,68.4,102.6,102.6.9.9,2,1.7,2.9,2.8-14.5,14.7-28.8,29-43.2,43.3-1,1-2.5,1.4-3.7,2.1Z"/>
  <path class="cls-7" d="M386.8,431c15.6,15.7,31.1,31.4,46.7,47.1,7.4,7.4,14.8,14.8,22.7,22.6-10.5,6-21.4,9-33,11-9.6.3-18.9.3-28.7.3-5.5-1.3-10.4-2.6-15.4-3.9-13.7-3.7-25.8-10.3-36.7-19.3-2.4-2-4.7-4.1-7.1-6.7,16.2-16.9,32.4-33.2,48.7-49.4.8-.8,1.9-1.2,2.9-1.7Z"/>
  <path class="cls-1" d="M125.1,81c-21.6-21.7-43.2-43.5-64.9-65.1-1.4-1.4-3.2-2.4-5.4-4.1C66.2,5.5,77.1,2.2,88.7.4c9.5-.4,18.9-.4,28.7-.4,5.6,1.3,10.7,2.6,15.8,4,13.4,3.6,25.3,10.2,36.1,18.9,2.5,2.1,5,4.3,7.4,7-16.2,16.9-32.4,33.2-48.7,49.4-.8.8-1.9,1.1-2.9,1.7Z"/>
  <path class="cls-9" d="M379.9,41c12.5-12.6,23.5-26.9,39.4-35.7,3.8-2.1,8.2-3.1,12.4-4.9,6.5-.3,12.9-.3,19.9,0,15.6,3.5,25.7,13.7,35.2,24.9-19.8,20-39.5,39.8-59.2,59.5-.6.6-1.4.9-2.3,1.2-15.3-15.1-30.3-30-45.4-44.9Z"/>
  <path class="cls-3" d="M425.6,86c.7-.4,1.5-.8,2-1.4,19.7-19.7,39.4-39.5,59.5-59.4,7.8,7.4,16.2,14.1,20.5,24,1.5,3.5,2.9,7.1,4.3,10.6v19.5c-4.1,15.8-14.3,26.9-25.4,37.4-5.1,4.8-9.9,9.9-15.4,14.6-1.8-1.2-3.2-2.1-4.3-3.3-13.7-13.8-27.5-27.6-41.2-41.6,0-.2,0-.7,0-.7Z"/>
  <path class="cls-4" d="M163.9,256.3c1.4-1,2.9-1.5,3.9-2.4,14.4-14.3,28.7-28.7,43.5-43.5,14.4-14.3,28.3-28.2,42.2-42.1,1.1-1.1,1.7-2.7,2.5-4.1,7.7-7.6,15.4-15.1,23.1-22.7,18.5-18.4,36.9-36.8,55.9-55.2,15.7,15,30.7,30,45.9,45.2,0,.2,0,.6-.2.8-2.1,1.9-3.9,3.6-5.7,5.4-95.8,95.8-191.5,191.5-287.4,287.3-2,2-4.4,3.5-6.9,5-4.4-4.2-8.6-8.3-12.7-12.4-10.7-10.5-21.3-21-32-31.5,1.2-1.7,2.3-3.6,3.7-5.1,41.4-41.5,82.8-82.9,124.3-124.6Z"/>
  <path class="cls-10" d="M80.9,430c2.2-1.7,4.6-3.2,6.6-5.2,95.8-95.7,191.6-191.5,287.4-287.3,1.8-1.8,3.6-3.5,6-5.2,15.5,14.9,30.3,29.8,45.2,44.7-5.9,6-11.8,12.1-17.7,18.1-20,20.1-40.1,40.2-60.3,60.6-1.5,1.1-3.1,1.7-4.2,2.8-14.3,14.2-28.5,28.4-43.1,43.1-13.6,13.3-26.8,26.2-39.9,39.2-2,2-3.2,4.7-4.8,7-1.3,1.2-2.7,2.4-4,3.7-40.2,40.2-80.5,80.5-120.7,120.7-1.4,1.4-3,2.5-5,3.5-15.4-15.1-30.3-29.9-45.2-45,0-.2,0-.7,0-.7Z"/>
  <path class="cls-1" d="M256.2,348c1.3-2.5,2.5-5.2,4.5-7.2,13.1-13,26.3-25.8,39.7-38.9,1.3.7,2.4,1.4,3.3,2.4,34.1,34.1,68.2,68.2,102.3,102.3.6.6,1.1,1.2,1.8,2.2-6.8,7.4-13.8,14.5-21,21.9-1.1.9-2.3,1.2-3.1,2-16.2,16.2-32.4,32.5-48.8,49.1-12.4-12-21.6-26.2-26-43-2.6-9.9-3.5-20.2-5.1-30.4,0-.3-.1-.7,0-1,3.8-9.2-2.1-14.2-7.8-19.8-13.4-13-26.4-26.3-39.9-39.6Z"/>
  <path class="cls-12" d="M80.6,429.9c.3.1.3.6.2,1.2-11.6,12.1-23,23.6-34.6,35.1-3.9,3.8-8.1,7.2-12.5,10.7-5.7-5.3-11.2-10.6-16.6-15.8,3.1-13.1,6.2-26.2,9.4-39.2,2.9-11.8,5.9-23.6,9.1-35.6,11,10.3,21.6,20.8,32.3,31.3,4.2,4.1,8.3,8.2,12.7,12.4Z"/>
  <path class="cls-5" d="M33.9,477c4.1-3.6,8.3-7,12.2-10.9,11.6-11.4,23-23,34.6-34.8,15.1,14.5,30,29.3,45.1,44.5-15.2,4.3-30.6,8.3-46,12.2-9.4,2.4-18.8,4.7-28.7,6.6-6-5.8-11.6-11.3-17.1-17,0-.2,0-.6,0-.6Z"/>
  <path class="cls-2" d="M33.6,476.9c.3.1.4.5.2,1-9.1,9.7-18,18.8-27,28-.3-1-1.1-2-.8-2.9,3.5-13.8,7.1-27.5,10.8-41.6,5.6,4.9,11,10.1,16.8,15.4Z"/>
  <path class="cls-11" d="M7.3,505.9c8.5-9.2,17.5-18.4,26.6-27.8,5.7,5.2,11.3,10.6,16.9,16.4-10.1,3-20.3,5.8-30.5,8.4-4.2,1.1-8.4,2-13,2.9Z"/>
  <path class="cls-7" d="M255.6,164c-.5,1.5-1.1,3.1-2.2,4.2-13.9,13.9-27.8,27.8-42,41.8-1.3-.7-2.4-1.4-3.3-2.4-34.2-34.2-68.4-68.4-102.6-102.6-.5-.5-.9-1-1.5-1.8,6.8-7.4,13.8-14.6,20.9-22,1.1-.9,2.3-1.2,3.1-2,16.2-16.2,32.5-32.5,48.8-49.1,15.7,15.5,25.9,34.1,29,56.2,1.1,8,1,16.3,1,24.4,0,3.2.9,5.5,3.2,7.9,15.2,15,30.2,30.1,45.6,45.3Z"/>
  <path class="cls-6" d="M380.7,131.2c-15.1-15-30.2-29.9-45.5-45.1,14.5-15.1,29.3-30,44.4-45,15.3,14.8,30.4,29.7,45.7,44.8.3.1.4.6,0,1-15.1,15-29.9,29.7-44.6,44.3Z"/>
  <path class="cls-8" d="M380.7,131.4c14.8-14.8,29.5-29.5,44.6-44.3,14,13.6,27.7,27.4,41.5,41.2,1.1,1.2,2.5,2,4,3.4-14.6,15.2-29.4,30.1-44.5,45.2-15.2-14.7-30-29.6-45.2-44.7-.3-.2-.3-.6-.3-.8Z"/>
</svg>