<?xml version="1.0" encoding="UTF-8"?>
<svg id="Layer_1" data-name="Layer 1" xmlns="http://www.w3.org/2000/svg" version="1.1" viewBox="0 0 24.4 33">
  <defs>
    <style>
      .cls-1 {
        stroke: #c3922e;
      }

      .cls-1, .cls-2 {
        fill: none;
        stroke-miterlimit: 10;
        stroke-width: 1.6px;
      }

      .cls-2 {
        stroke: #fbcc34;
      }

      .cls-3 {
        fill: #00469f;
      }

      .cls-3, .cls-4, .cls-5, .cls-6 {
        stroke-width: 0px;
      }

      .cls-4 {
        fill: #fbcc34;
      }

      .cls-5 {
        fill: #000a6a;
      }

      .cls-6 {
        fill: #8c959d;
      }
    </style>
  </defs>
  <path class="cls-6" d="M12.2,11.6c3.7,0,6.5,3,6.5,6.6h3c0-5.2-4.2-9.5-9.5-9.5S2.7,13,2.7,18.2h2.9c0-3.7,3-6.6,6.6-6.6Z"/>
  <polygon class="cls-5" points="12.2 16.2 0 9.5 12.2 2.8 24.4 9.5 12.2 16.2"/>
  <polygon class="cls-3" points="12.2 13.4 0 6.7 12.2 0 24.4 6.7 12.2 13.4"/>
  <polyline class="cls-1" points="12.2 6.7 18 10.2 18 15.7"/>
  <circle class="cls-4" cx="12.2" cy="6.7" r="1.9"/>
  <line class="cls-2" x1="18" y1="15.7" x2="18" y2="18.2"/>
  <path class="cls-6" d="M21.7,20H2.7v8.4c0,1.4,1.2,2.6,2.6,2.6l3.5.8c.5.1,1,.3,1.5.7,1,.7,2.7.7,3.7,0,.4-.3.9-.5,1.4-.6l3.7-.9c1.4,0,2.6-1.2,2.6-2.6v-8.4ZM12.1,28.9c.7,0,1.4.3,1.6.5l-1.6,1.5-1.6-1.5c.5-.3,1-.5,1.6-.5ZM9,28.4l-1.3-1.3c1.2-1.2,2.8-1.8,4.5-1.8s3.3.6,4.5,1.8h0s-1.3,1.3-1.3,1.3c-.9-.8-2-1.3-3.2-1.3s-2.3.5-3.2,1.3ZM6.7,26.1l-1.3-1.3c1.8-1.8,4.2-2.8,6.8-2.8s5,1,6.8,2.8h0s-1.3,1.3-1.3,1.3c-1.5-1.4-3.4-2.2-5.5-2.2s-4,.8-5.5,2.2Z"/>
</svg>