<?xml version="1.0" encoding="UTF-8"?>
<svg id="Layer_1" data-name="Layer 1" xmlns="http://www.w3.org/2000/svg" version="1.1" viewBox="0 0 40 27.9">
  <defs>
    <style>
      .cls-1 {
        fill: #e0e0d1;
      }

      .cls-1, .cls-2, .cls-3 {
        stroke-width: 0px;
      }

      .cls-4 {
        opacity: .2;
      }

      .cls-2 {
        fill: #e2e2e2;
      }

      .cls-3 {
        fill: #231f20;
      }
    </style>
  </defs>
  <path class="cls-1" d="M40,23.9c0,2.2-1.8,4-4,4H4c-2.2,0-4-1.8-4-4V3.9C0,1.7,1.8-.1,4-.1h32c2.2,0,4,1.8,4,4v20Z"/>
  <g class="cls-4">
    <path class="cls-3" d="M23.5,12.1c-1.9-2.1-5.1-2.1-7,0L1,25.1c-.2.2-.3.4-.5.6.7,1.3,2,2.2,3.4,2.2h32c1.5,0,2.7-.9,3.4-2.2,0-.2-.3-.4-.5-.6,0,0-15.3-13-15.3-13Z"/>
  </g>
  <path class="cls-1" d="M23.5,13.9c-1.9-1.9-5.1-1.9-7,0L1,25.4c-.2.2-.3.3-.5.5.7,1.2,2,1.9,3.4,1.9h32c1.5,0,2.7-.8,3.4-1.9,0-.2-.3-.3-.5-.5,0,0-15.3-11.5-15.3-11.5Z"/>
  <g class="cls-4">
    <path class="cls-3" d="M.6,2.1C1.3.8,2.6-.1,4-.1h32c1.5,0,2.7.9,3.4,2.2,0,.2-.3.4-.5.6l-15.4,13c-1.9,2.1-5.1,2.1-7,0L.6,2.1Z"/>
  </g>
  <path class="cls-2" d="M16.5,13.9c1.9,1.9,5.1,1.9,7,0l15.5-11.5.5-.5c-.7-1.2-2-1.9-3.4-1.9H4C2.5,0,1.3.8.6,1.9c.1.2.3.3.5.5l15.4,11.5Z"/>
</svg>