<?xml version="1.0" encoding="UTF-8"?>
<svg id="Layer_1" data-name="Layer 1" xmlns="http://www.w3.org/2000/svg" version="1.1" viewBox="0 0 1280 577.3">
  <defs>
    <style>
      .cls-1 {
        fill: #3525ff;
      }

      .cls-1, .cls-2 {
        stroke-width: 0px;
      }

      .cls-2 {
        fill: #7194ff;
      }
    </style>
  </defs>
  <path class="cls-2" d="M956,7.7c-75.5,9.1-147,45.6-226.5,115.7-19.4,17-32.6,29.6-64.2,61-22.5,22.4-25.8,25.2-27.5,24.3-1.1-.6-9.8-9.1-19.4-19C506.6,75.3,434.1,27.2,350.1,11.7c-54.7-10.1-111.5-3.7-163.1,18.2C100.5,66.6,37.2,144,19.5,234.5c-4,20.2-5,31.1-5,55.2,0,38.3,5.3,70.3,17.2,104.1,33,94.2,111.9,159,211.5,173.9,62,9.3,130.7-2.5,191.3-32.7,23.7-11.8,43.8-24.4,68.7-43.1,31.4-23.4,54.3-44,103.7-92.8,17.2-17.1,32-31.1,32.6-31.1s7.5,6.5,15.1,14.3c16.8,17.5,57.9,57.1,75.3,72.6,80.1,71.4,140.9,103.1,217.6,113.7,5.7.8,19,1.2,34.2,1.2s27.3-.4,39.1-2.2c63.5-9.8,117.8-37,162.1-81.3,44.7-44.7,72.5-102.1,80.4-166.1,1.9-15.1,1.6-55-.6-70.4-7.6-54.8-26.9-104.3-55.5-142.4-9.3-12.5-28.7-32.4-41.5-42.5-35.6-28.3-81.8-47.5-134.7-55.7-16.8-2.5-58.1-3.3-75-1.3ZM337.2,124.9c32.8,6.9,66.1,22.8,98.7,47,11.6,8.6,29,22.9,40.4,33.1,14.3,13,86,83.1,86,84.1,0,1.6-62.6,63.4-77.7,77-48.1,42.8-92.6,69.9-134.4,82-19.7,5.7-31.4,7.2-55.2,7.2s-23-.3-32.6-2.2c-57.7-11.6-99.9-49.3-118.3-105.3-15.6-47.8-12.7-93.1,8.8-135.4,24.6-48.5,69-80.5,123.7-89.4,6.2-1,14.3-1.3,28.6-1,16.8.3,22,.8,32,2.8ZM1008,123c32,4.5,59.1,16.7,82.2,36.9,42.9,37.5,63.4,103.9,50.5,163.9-13.1,61.1-60.1,110.5-120.1,126.6-14.5,3.8-27.3,5.4-44.4,5.4-30.3,0-54.6-6.1-85-21-32-15.6-62.7-38.2-101.4-74.4-24.2-22.7-72.6-70.3-72.9-71.7-.3-1.6,45.5-48.4,65.3-66.6,66.7-61.6,119.3-91.2,175.9-99.1,12.7-1.8,37.3-1.8,49.8,0Z"/>
  <path class="cls-1" d="M930.3,30.5c-69.3,8.4-135.1,41.9-208.1,106.3-17.8,15.6-30,27.2-59,56-20.7,20.6-23.7,23.2-25.2,22.4-1-.5-9-8.4-17.9-17.4-102.7-105.2-169.4-149.4-246.5-163.6-50.3-9.2-102.5-3.4-149.9,16.7-79.5,33.8-137.7,104.8-153.9,187.9-3.7,18.6-4.6,28.6-4.6,50.7,0,35.2,4.8,64.6,15.8,95.6,30.4,86.6,102.8,146.1,194.3,159.8,56.9,8.5,120.1-2.3,175.7-30.1,21.8-10.9,40.2-22.4,63.1-39.6,28.8-21.5,49.9-40.4,95.3-85.3,15.8-15.7,29.4-28.6,30-28.6s6.9,5.9,13.8,13.1c15.4,16.1,53.2,52.4,69.1,66.7,73.6,65.6,129.5,94.7,199.9,104.4,5.2.7,17.4,1.1,31.4,1.1s25.1-.4,35.9-2.1c58.4-9,108.2-34,149-74.7,41-41,66.6-93.8,73.9-152.6,1.7-13.9,1.4-50.6-.5-64.7-7-50.4-24.7-95.8-51-130.8-8.5-11.5-26.4-29.8-38.2-39.1-32.7-26-75.2-43.6-123.7-51.2-15.4-2.3-53.3-3.1-68.9-1.2ZM361.7,138.2c30.2,6.4,60.7,20.9,90.7,43.2,10.7,7.9,26.7,21,37.1,30.4,13.1,11.9,79,76.3,79,77.2,0,1.4-57.5,58.3-71.4,70.8-44.2,39.3-85,64.2-123.5,75.3-18.1,5.2-28.8,6.6-50.7,6.6s-21.1-.3-30-2.1c-53-10.7-91.8-45.3-108.7-96.7-14.4-43.9-11.7-85.6,8.1-124.4,22.6-44.5,63.4-74,113.7-82.2,5.7-.9,13.1-1.2,26.3-.9,15.4.3,20.2.7,29.4,2.6ZM978,136.5c29.4,4.1,54.3,15.4,75.5,33.9,39.4,34.5,58.3,95.5,46.4,150.6-12,56.1-55.2,101.6-110.4,116.3-13.3,3.5-25.1,4.9-40.8,4.9-27.8,0-50.2-5.6-78.1-19.3-29.4-14.4-57.7-35.1-93.1-68.3-22.3-20.8-66.7-64.6-67-65.9-.3-1.4,41.8-44.5,60-61.2,61.2-56.6,109.6-83.8,161.6-91.1,11.7-1.6,34.3-1.6,45.8,0Z"/>
</svg>