<svg id="svg" xmlns="http://www.w3.org/2000/svg" xmlns:xlink="http://www.w3.org/1999/xlink" width="400" height="400" viewBox="0, 0, 400,400"><g id="svgg"><path id="path0" d="M229.455 1.119 C 208.341 8.707,207.258 37.857,227.734 47.420 L 232.422 49.609 273.378 49.850 L 314.333 50.090 247.891 116.647 C 173.485 191.179,178.498 185.352,178.535 197.266 C 178.578 211.487,188.513 221.422,202.734 221.465 C 214.648 221.502,208.821 226.515,283.353 152.109 L 349.910 85.667 350.150 126.622 L 350.391 167.578 352.580 172.266 C 361.388 191.124,387.283 192.173,397.307 174.077 L 399.609 169.922 399.609 93.359 L 399.609 16.797 397.819 13.444 C 395.532 9.162,390.838 4.468,386.556 2.181 L 383.203 0.391 307.813 0.222 C 245.769 0.083,231.897 0.241,229.455 1.119 M12.500 75.843 C 7.781 77.976,4.103 81.602,1.865 86.328 L 0.015 90.234 0.015 237.109 L 0.015 383.984 1.849 387.891 C 4.171 392.839,7.161 395.829,12.109 398.151 L 16.016 399.985 162.891 399.985 L 309.766 399.985 313.672 398.135 C 318.398 395.897,322.024 392.219,324.157 387.500 C 325.735 384.012,325.747 383.004,325.764 258.599 L 325.781 133.214 304.297 154.688 L 282.813 176.161 282.813 266.596 L 282.813 357.031 162.891 357.031 L 42.969 357.031 42.969 237.109 L 42.969 117.188 133.404 117.188 L 223.839 117.188 245.313 95.703 L 266.786 74.219 141.401 74.236 C 16.996 74.253,15.988 74.265,12.500 75.843 " stroke="none" fill="#000000" fill-rule="evenodd"></path></g></svg>