<?xml version="1.0" encoding="UTF-8"?>
<svg xmlns="http://www.w3.org/2000/svg" version="1.1" viewBox="0 0 428 427.9">
  <defs>
    <style>
      .cls-1 {
        fill: #fff;
      }

      .cls-2 {
        fill: #106fff;
      }
    </style>
  </defs>
  <!-- Generator: Adobe Illustrator 28.6.0, SVG Export Plug-In . SVG Version: 1.2.0 Build 709)  -->
  <g>
    <g id="Layer_1">
      <path class="cls-2" d="M427.9,84.4c0-4.1-.3-8.3-1.1-12.3-4.2-21.5-14.1-39.4-31.5-53.3C380,6.6,362.5.3,343.2.2,258.4-.1,173.6,0,88.8,0c-15.3,0-30,2.8-43.5,10.3C16.5,26.2.8,51.1.2,83.6-.9,139.9-.2,196.2,0,252.5c0,7,.6,14.2,2,21.1,6.3,31.1,24.6,52.5,54.3,63.4,9.2,3.4,19.2,4.5,29.6,6.8v4.1c0,19.5.2,39,0,58.5-.1,9.7,4.7,15.6,13,20.1,11.8,3.8,20.3-.8,28.3-9,23.2-23.7,46.9-46.9,70.2-70.5,3.5-3.6,6.9-5.2,12-5.1,46.7.2,93.3.2,140,0,3.9,0,7.9-.6,11.7-1.5,18.3-4.7,34-13.5,46.5-28.3,13.1-15.5,20.2-33.3,20.3-53.3.4-58.2.2-116.3.1-174.5Z"/>
      <path class="cls-1" d="M145.6,154.2c8,12,8.6,24.1,1.2,36-7.2,11.6-18.3,16.4-31.6,14.5-12.8-1.8-21.5-9.4-25.7-21.6-4.9-14.4,1.4-30.3,14.7-37.8,14-7.8,30.1-4.4,41.4,8.9Z"/>
      <path class="cls-1" d="M204,202.8c-13.8-6.6-21-18.1-20.1-31.9.8-12.6,9.5-23.9,21.5-28.1,13.1-4.5,27.8,0,36.1,11.2,8.3,11.2,8.4,26.4.2,37.8-8.5,11.7-22.8,16-37.7,11Z"/>
      <path class="cls-1" d="M341.8,162c4.5,14,1.3,25.7-9.1,35.3-9.3,8.5-23.7,10.3-35,4.4-12.2-6.4-18.2-16.7-17.7-30.5.5-14.2,11.7-26.9,25.5-29.4,15.7-2.9,29.2,4.5,36.3,20.2Z"/>
    </g>
  </g>
</svg>