<?xml version="1.0" encoding="UTF-8"?>
<svg id="Layer_1" data-name="Layer 1" xmlns="http://www.w3.org/2000/svg" version="1.1" viewBox="0 0 542.8 512">
  <defs>
    <style>
      .cls-1 {
        fill: #b4b4b4;
      }

      .cls-1, .cls-2, .cls-3, .cls-4, .cls-5, .cls-6 {
        stroke-width: 0px;
      }

      .cls-2 {
        fill: #e0e0e0;
      }

      .cls-3 {
        fill: #000f74;
      }

      .cls-4 {
        fill: #424242;
      }

      .cls-5 {
        fill: #707070;
      }

      .cls-6 {
        fill: #359eff;
      }
    </style>
  </defs>
  <polygon class="cls-1" points="115.6 176 83.9 176 61.8 301.6 83.9 427.2 115.6 427.2 115.6 176"/>
  <rect class="cls-2" x="52.2" y="176" width="31.7" height="251.1"/>
  <polygon class="cls-1" points="240.6 176 208.9 176 186.7 301.6 208.9 427.2 240.6 427.2 240.6 176"/>
  <rect class="cls-2" x="177.3" y="176" width="31.7" height="251.1"/>
  <polygon class="cls-1" points="365.6 176 333.9 176 311.7 301.6 333.9 427.2 365.6 427.2 365.6 176"/>
  <rect class="cls-2" x="302.3" y="176" width="31.7" height="251.1"/>
  <polygon class="cls-1" points="490.6 176 459 176 436.8 301.6 459 427.2 490.6 427.2 490.6 176"/>
  <rect class="cls-2" x="427.3" y="176" width="31.7" height="251.1"/>
  <polygon class="cls-1" points="271.4 0 249.2 113.4 496.8 91.2 271.4 0"/>
  <polygon class="cls-2" points="46 91.2 271.4 113.4 271.4 0 46 91.2"/>
  <polygon class="cls-4" points="507.7 481.4 507.7 403.5 271.4 403.5 249.2 481.4 507.7 481.4"/>
  <g>
    <rect class="cls-5" x="35.2" y="403.5" width="236.2" height="78.1"/>
    <polygon class="cls-5" points="542.8 512 542.8 451 271.4 451 249.2 481.4 271.4 512 542.8 512"/>
  </g>
  <rect class="cls-1" y="451" width="271.4" height="61"/>
  <polygon class="cls-4" points="507.7 121.8 249.2 121.8 271.4 199.8 507.7 199.8 507.7 121.8"/>
  <g>
    <rect class="cls-5" x="35.2" y="121.8" width="236.2" height="78.1"/>
    <polygon class="cls-5" points="542.8 152.2 542.8 91.2 271.4 91.2 249.2 121.8 271.4 152.2 542.8 152.2"/>
  </g>
  <rect class="cls-1" y="91.2" width="271.4" height="61"/>
  <g>
    <path class="cls-6" d="M200.5,289.3c9.4-9.4,21.1-15.4,33.8-17.7-3.2-4.3-5.6-9.1-7.1-14.3-8.9-8-20.7-12.8-33.6-12.8h-2.4c-6.8,4-14.7,6.3-23.1,6.3s-16.3-2.3-23.1-6.3h-2.4c-27.9,0-50.6,22.7-50.6,50.6v44.1c0,3.4,2.4,6.3,5.7,7.1l7.9,1.7c20.5,4.5,41.6,6.8,62.6,6.8s9.1-.1,13.7-.3v-19.9c0-17.1,6.7-33.1,18.7-45.2Z"/>
    <path class="cls-6" d="M168.1,168.9c-19.8,0-35.9,16.1-35.9,35.9s4.4,19.8,11.5,26.3c3,2.8,6.5,5.1,10.3,6.7,4.4,1.9,9.1,2.9,14.2,2.9s9.8-1,14.2-2.9c3.8-1.6,7.3-3.9,10.3-6.7,7.1-6.6,11.5-15.9,11.5-26.3,0-19.8-16.1-35.9-35.9-35.9Z"/>
  </g>
  <g>
    <path class="cls-6" d="M315.2,257.6c-1.5,5.1-3.9,9.8-7,13.9,12.8,2.3,24.5,8.4,33.8,17.7,12.1,12.1,18.7,28.1,18.7,45.2v19.9c4.7.2,9.3.3,14,.3,21,0,42.1-2.3,62.6-6.8l7.9-1.7c3.3-.7,5.7-3.7,5.7-7.1v-44.1c0-27.9-22.7-50.6-50.6-50.6h-2.4c-6.8,4-14.7,6.3-23.1,6.3s-16.3-2.3-23.1-6.3h-2.4c-13.1,0-25,5-34,13.2Z"/>
    <path class="cls-6" d="M374.8,168.9c-19.8,0-35.9,16.1-35.9,35.9s4.4,19.8,11.5,26.3c3,2.8,6.5,5.1,10.3,6.7,4.4,1.9,9.1,2.9,14.2,2.9s9.8-1,14.2-2.9c3.8-1.6,7.3-3.9,10.3-6.7,7.1-6.6,11.5-15.9,11.5-26.3,0-19.8-16.1-35.9-35.9-35.9Z"/>
  </g>
  <g>
    <path class="cls-3" d="M299.9,284c-1,0-2,0-3,0h-2.4c-.5.3-1,.6-1.5.9-2.3,1.2-4.7,2.3-7.2,3.1-4.5,1.5-9.4,2.3-14.4,2.3s-9.6-.8-14.1-2.2c-2.5-.8-4.9-1.8-7.2-3-.6-.3-1.3-.7-1.9-1h-2.4c-.9,0-1.8,0-2.7,0-26.6,1.4-47.8,23.5-47.8,50.5v44.1c0,3.4,2.4,6.3,5.7,7.1l7.9,1.7c20.5,4.5,41.6,6.8,62.6,6.8s42.1-2.3,62.6-6.8l7.9-1.7c3.3-.7,5.7-3.7,5.7-7.1v-44.1c0-26.9-21.1-48.9-47.5-50.5Z"/>
    <path class="cls-3" d="M271.3,208.3c-19.8,0-35.9,16.1-35.9,35.9s0,1.6,0,2.4c.3,4.9,1.6,9.5,3.7,13.6,1.3,2.5,2.8,4.8,4.6,7,1,1.2,2,2.3,3.1,3.3,2.4,2.2,5,4.1,7.9,5.6.8.4,1.5.8,2.3,1.1,4.4,1.9,9.1,2.9,14.2,2.9s9.8-1,14.2-2.9c.9-.4,1.8-.8,2.7-1.3,2.7-1.5,5.3-3.3,7.5-5.4,1.6-1.5,3-3,4.3-4.7,1-1.3,1.8-2.6,2.6-4,2.5-4.4,4.1-9.5,4.5-14.8,0-.9.1-1.8.1-2.7,0-19.8-16.1-35.9-35.9-35.9Z"/>
  </g>
</svg>