<?xml version="1.0" encoding="UTF-8"?><svg id="Layer_1" xmlns="http://www.w3.org/2000/svg" viewBox="0 0 192.4821 43.8355"><defs><style>.cls-1,.cls-2{fill:#000;}.cls-1,.cls-3{stroke-width:0px;}.cls-4{letter-spacing:-.1099em;}.cls-2{font-family:IowanOldStyle-Black, 'Iowan Old Style';font-size:19.7961px;font-weight:800;}.cls-3{fill:#fff;}</style></defs><path class="cls-3" d="M21.9179,41.8357c-10.9829,0-19.918-8.9351-19.918-19.918S10.935,2.0002,21.9179,2.0002h148.6465c10.9829,0,19.918,8.9351,19.918,19.9175s-8.9351,19.918-19.918,19.918H21.9179Z"/><path class="cls-1" d="M170.5644,4c9.8799,0,17.9177,8.0378,17.9177,17.9178s-8.0378,17.9177-17.9177,17.9177H21.9177c-9.8799,0-17.9177-8.0379-17.9177-17.9178S12.0378,4,21.9177,4h148.6467M170.5644,0H21.9177C9.8129,0,0,9.8129,0,21.9177h0c0,12.1049,9.8129,21.9178,21.9177,21.9178h148.6467c12.1049,0,21.9177-9.8129,21.9177-21.9177h0c0-12.1049-9.8129-21.9178-21.9177-21.9178h0Z"/><text class="cls-2" transform="translate(13.7703 28.7219)"><tspan class="cls-4" x="0" y="0">Y</tspan><tspan x="12.7881" y="0">our Logo Here</tspan></text></svg>