<svg xmlns="http://www.w3.org/2000/svg"  width="20" height="20" viewBox="0 0 24 24" style="enable-background:new 0 0 24 24;">
<path d="M23.4,10.4C23.4,10.4,23.4,10.4,23.4,10.4l-9.9-9.8c-0.9-0.9-2.3-0.9-3.1,0l-9.9,9.8c-0.8,0.8-0.6,1.5-0.5,1.7 C0.2,12.4,0.6,13,1.6,13H3c0.3,0,0.6,0.3,0.6,0.6V22c0,1.1,0.9,2,1.9,2H8c0.6,0,1-0.5,1-1v-6.8c0-0.3,0.3-0.6,0.6-0.6h4.7 c0.3,0,0.6,0.3,0.6,0.6V23c0,0.6,0.5,1,1,1h2.5c1.1,0,1.9-0.9,1.9-2v-8.4c0-0.3,0.3-0.6,0.6-0.6h1.4c1,0,1.4-0.6,1.5-0.9 C24,11.9,24.2,11.2,23.4,10.4z" fill="#FFFFFF"/>
</svg>